Coordinates
version=1
nRows=13
nColumns=36
inDegrees=yes

Units are S.I. units (second, meters, Newtons, ...)
If the header above contains a line with 'inDegrees', this indicates whether rotational values are in degrees (yes) or radians (no).

endheader
time	pelvis_tilt	pelvis_list	pelvis_rotation	pelvis_tx	pelvis_ty	pelvis_tz	hip_flexion_r	hip_adduction_r	hip_rotation_r	knee_angle_r	knee_angle_r_beta	ankle_angle_r	subtalar_angle_r	mtp_angle_r	hip_flexion_l	hip_adduction_l	hip_rotation_l	knee_angle_l	knee_angle_l_beta	ankle_angle_l	subtalar_angle_l	mtp_angle_l	lumbar_extension	lumbar_bending	lumbar_rotation	arm_flex_r	arm_add_r	arm_rot_r	elbow_flex_r	pro_sup_r	arm_flex_l	arm_add_l	arm_rot_l	elbow_flex_l	pro_sup_l
      1.01000000	     -3.28917592	     -0.53196392	     -0.49557873	      1.14400075	      0.94850955	     -0.21716194	     29.69341697	      0.65004918	     -1.51501279	     11.20200479	      0.19551187	      4.26575240	      0.97531016	     -7.24926225	     -7.36784324	     -1.40531227	     -9.74207084	      6.52282740	      0.11384481	     17.14154822	      1.53070999	     -7.24926225	     -7.16807755	     -9.77276088	    -11.43727748	     -5.32703675	     -8.18399813	     -9.89620421	     49.28158779	    106.94300658	     16.25228473	    -12.48777316	     -0.02479411	     47.43276846	    108.03323584
      1.02000000	     -3.33460143	     -0.42422931	     -0.55048885	      1.15489389	      0.94598827	     -0.21663810	     29.47491875	      0.43678855	     -0.61813688	      8.49396855	      0.14824772	      3.84227252	      1.28149368	     -7.25526372	     -8.47480786	     -1.22804329	     -9.81906752	      5.77564203	      0.10080397	     17.36091355	      1.74748284	     -7.25526372	     -7.24073185	     -9.48940018	    -11.60530469	     -5.42240701	     -8.26705725	    -10.36998496	     49.23189498	    106.83510687	     16.79557039	    -13.03814845	      1.86063088	     48.51759289	    108.06007527
      1.03000000	     -3.57721085	     -0.32159981	     -0.59626848	      1.16586746	      0.94305126	     -0.21600560	     29.61695572	      0.19953105	      0.04537753	      6.48860258	      0.11324748	      3.70472772	      1.72708390	     -7.26039587	     -9.22122811	     -1.10578627	     -9.83892025	      5.33758075	      0.09315836	     17.64996672	      1.93090601	     -7.26039587	     -7.00491686	     -9.20684939	    -11.76583207	     -5.53692470	     -8.33516816	    -10.86259913	     49.06037929	    106.70027563	     17.30888056	    -13.34170304	      3.13602531	     49.29634163	    108.01052847
      1.04000000	     -3.88822372	     -0.25785843	     -0.62746298	      1.17699015	      0.93995282	     -0.21524066	     29.94305888	      0.00913768	      0.38291411	      5.16906300	      0.09021717	      3.76890096	      2.09498585	     -7.26203644	     -9.78613293	     -1.06338848	     -9.85118008	      5.12303602	      0.08941385	     17.89116149	      2.00227243	     -7.26203644	     -6.67186100	     -8.87593900	    -11.92931798	     -5.64540524	     -8.46598197	    -11.19731370	     48.75505807	    106.61351771	     17.70502442	    -13.46730284	      3.75199931	     49.95519683	    108.04593436
      1.05000000	     -4.11214729	     -0.23139716	     -0.57840833	      1.18795620	      0.93698402	     -0.21450716	     30.35963634	     -0.16823100	      0.58071207	      4.73956849	      0.08272108	      3.76372377	      2.22932495	     -7.26260490	    -10.32261909	     -1.09800567	     -9.91496762	      5.09337701	      0.08889620	     18.01525354	      2.00915099	     -7.26260490	     -6.57105947	     -8.44436693	    -12.21147523	     -5.57899116	     -8.61684149	    -11.41674551	     48.54167689	    106.56195639	     18.23834326	    -13.47206785	      4.06264803	     50.40856994	    108.08439167
      1.06000000	     -4.09396341	     -0.41643301	     -0.56442061	      1.19941117	      0.93447826	     -0.21318370	     30.20135802	     -0.02378408	      1.26502785	      4.24749891	      0.07413284	      3.21074895	      1.96016176	     -7.27719267	    -11.06674197	     -1.45286476	    -10.15769839	      5.30653393	      0.09261649	     18.74491290	      2.72658182	     -7.27719267	     -6.64620935	     -7.88167204	    -11.99133670	     -5.70698751	     -8.31095479	    -13.04610302	     48.08509869	    105.86792219	     18.99179416	    -14.00874889	      6.71071525	     50.90312010	    107.52071632
      1.07000000	     -4.18902790	     -0.63907743	     -0.47346343	      1.21094220	      0.93192639	     -0.21197952	     30.36127269	      0.12903284	      1.46572587	      4.63805681	      0.08094936	      2.87709413	      1.79897472	     -7.27944816	    -11.58798037	     -1.84839128	    -10.15934425	      5.66479056	      0.09886925	     18.94185011	      2.63099572	     -7.27944816	     -6.65255284	     -7.21775062	    -12.18363185	     -5.57080398	     -8.33001374	    -13.54763425	     47.39941743	    105.70451970	     19.30628193	    -14.04861469	      7.08178554	     51.48414405	    107.49310673
      1.08000000	     -4.28923011	     -0.92689779	     -0.34524244	      1.22261261	      0.92957274	     -0.21048802	     30.43015997	      0.42268416	      2.15233121	      5.25813073	      0.09177169	      1.67932782	      0.26836629	     -7.29311301	    -11.96230257	     -2.39267183	    -10.33911836	      6.30491039	      0.11004145	     19.25838939	      2.90079782	     -7.29311301	     -6.64126832	     -6.50628438	    -12.29138383	     -5.45900599	     -8.16361692	    -14.52013868	     46.74577162	    105.15450249	     19.66390385	    -14.12206330	      7.81687719	     51.91652023	    106.98742499
      1.09000000	     -4.28020462	     -1.31183847	     -0.22049613	      1.23455656	      0.92758685	     -0.20891227	     30.43686127	      0.81042767	      2.37823674	      6.33811744	      0.11062102	      1.08337748	      0.09090623	     -7.29424875	    -12.45815108	     -3.02590285	    -10.25132449	      6.94954609	      0.12129246	     19.16431168	      2.78557198	     -7.29424875	     -6.76577984	     -5.65412816	    -12.38240054	     -5.37421873	     -8.21388049	    -14.87987709	     46.12560372	    105.05172856	     19.91749381	    -14.01621730	      7.98744360	     52.23699587	    106.99443178
      1.10000000	     -4.31427906	     -1.77513890	     -0.03100299	      1.24665767	      0.92587465	     -0.20706751	     30.40174518	      1.35193541	      2.73099219	      7.37779040	      0.12876673	     -0.94675461	     -2.12760118	     -7.30483040	    -12.67353226	     -3.84014673	    -10.47291190	      8.03732561	      0.14027779	     19.25387822	      2.61247355	     -7.30483040	     -6.83014820	     -4.75957525	    -12.47315376	     -5.12107063	     -7.91806963	    -16.14339711	     45.05937891	    104.63737650	     20.08349384	    -13.98151011	      8.38964839	     52.57849626	    106.79026197
      1.11000000	     -4.22138401	     -2.30126519	      0.18245643	      1.25903516	      0.92465163	     -0.20515852	     30.26455705	      1.91160075	      2.45431245	      8.63011856	      0.15062398	     -2.11309756	     -2.71025944	     -7.30792671	    -12.98280946	     -4.72643562	    -10.52567488	      9.19436568	      0.16047195	     18.94529565	      2.24474780	     -7.30792671	     -7.05609493	     -3.77207335	    -12.51098496	     -4.92726241	     -7.81910774	    -16.80086676	     44.02929816	    104.46406120	     20.22420679	    -13.80319849	      8.52423796	     52.79494531	    106.77857781
      1.12000000	     -4.11810702	     -2.84451741	      0.35167957	      1.27158806	      0.92377402	     -0.20292418	     30.01782996	      2.59135227	      2.54074588	      9.69968845	      0.16929150	     -3.80767751	     -4.25892888	     -7.31695287	    -13.21406256	     -5.62775946	    -10.32968312	     10.54292780	      0.18400880	     18.45264650	      1.61585536	     -7.31695287	     -7.24873636	     -2.79372479	    -12.45367640	     -4.73223484	     -7.60987101	    -17.80944315	     43.03705318	    104.23196534	     20.25424281	    -13.57362169	      8.54937048	     52.95490543	    106.75642380
      1.13000000	     -3.87888171	     -3.41376043	      0.54460872	      1.28436357	      0.92341206	     -0.20061960	     29.65789199	      3.25467932	      2.00455728	     10.88329500	      0.18994933	     -4.53629502	     -4.66070655	     -7.31868883	    -13.42597335	     -6.60461224	    -10.30336697	     12.17988419	      0.21257908	     17.78987201	      1.05777176	     -7.31868883	     -7.61521509	     -1.79789283	    -12.29613595	     -4.59353754	     -7.53509799	    -18.33068050	     42.00459440	    104.11285242	     20.30120676	    -13.28710542	      8.58152953	     53.06182773	    106.77694911
